/* XPM */
static char *_f87d78091984f35ab420c1241bcbb3dzc9PKh8PJ9i9uSox[] = {
/* columns rows colors chars-per-pixel */
"32 32 27 1 ",
"  c None",
". c #161616",
"X c #171616",
"o c #161716",
"O c #171716",
"+ c #161617",
"@ c #171617",
"# c #161717",
"$ c gray9",
"% c #3E1B0E",
"& c #3F1B0E",
"* c #3E1A0F",
"= c #3F1A0F",
"- c #3E1B0F",
"; c #3F1B0F",
": c #D84212",
"> c #D94212",
", c #D84312",
"< c #D94312",
"1 c #D84213",
"2 c #D94213",
"3 c #D84313",
"4 c #F1B244",
"5 c #F1B344",
"6 c #F1B245",
"7 c #F0B345",
"8 c #F1B345",
/* pixels */
"                                ",
"                                ",
"                                ",
"                 >              ",
"               >>>              ",
"            77>>>77 >>          ",
"           777>>>777>>          ",
"          >777>>>777>           ",
"          >>77>>  7>>           ",
"         >>>>>>>  >>>           ",
"         >>>>>>>>>>>            ",
"        .>>>>7>>>>>>            ",
"        ..>>77>>>>...           ",
"        .............           ",
"         ...........            ",
"            ;;;;;;;             ",
"            ;;;;;;;             ",
"             ;;;;;;;            ",
"            ;;;;;;;;            ",
"             ;;;;;;;            ",
"            ;;;;;;;;            ",
"            ;;;;;;;;            ",
"            ;;;;;;;;            ",
"            ;;;;;;;             ",
"            ;;;;;;;             ",
"            ;;;;;;;             ",
"            ;;;;;;;             ",
"            ;;;;;;;             ",
"             ;;;;;;             ",
"             ;;;;;;             ",
"             ;;;;;;             ",
"             ;;;;;;             "
};
