/* XPM */
static char *_302d32091ab4e4f815253d5b0c48aa1fN0RSfX3iv0YlnnZ[] = {
/* columns rows colors chars-per-pixel */
"32 32 24 1 ",
"  c None",
". c #161616",
"X c #171616",
"o c #161716",
"O c #171716",
"+ c #161617",
"@ c #171617",
"# c #3F1A0E",
"$ c #3E1B0E",
"% c #3F1B0E",
"& c #3E1A0F",
"* c #3F1A0F",
"= c #3E1B0F",
"- c #3F1B0F",
"; c #D84212",
": c #D94212",
"> c #D84312",
", c #D94312",
"< c #D84213",
"1 c #D94213",
"2 c #F0B245",
"3 c #F1B245",
"4 c #F0B345",
"5 c #F1B345",
/* pixels */
"                                ",
"                ,,              ",
"               ,,,              ",
"             55,,,              ",
"             55,,,55            ",
"          5 55,,,,55,           ",
"            55,,,555,           ",
"           ,55,,,5              ",
"            55,,,5 ,,           ",
"            ,,,,,  ,,           ",
"          ,,,,,5, ,,            ",
"        .,,,,,55,,,,            ",
"        ..,,,,5,,,...           ",
"        .............           ",
"         ...........            ",
"            -------             ",
"            -------             ",
"             -------            ",
"            --------            ",
"             -------            ",
"            --------            ",
"            --------            ",
"            --------            ",
"            -------             ",
"            -------             ",
"            -------             ",
"            -------             ",
"            -------             ",
"             ------             ",
"             ------             ",
"             ------             ",
"             ------             "
};
