/* XPM */
static char *_29bb7e0f9674a32c3666baee8d086533OFhBYLSpgql29wi[] = {
/* columns rows colors chars-per-pixel */
"32 32 26 1 ",
"  c None",
". c #161616",
"X c #171616",
"o c #161716",
"O c #171716",
"+ c #161617",
"@ c #171617",
"# c #161717",
"$ c #3F1A0E",
"% c #3E1B0E",
"& c #3F1B0E",
"* c #3E1A0F",
"= c #3F1A0F",
"- c #3E1B0F",
"; c #3F1B0F",
": c #D84212",
"> c #D94212",
", c #D84312",
"< c #D94312",
"1 c #D84213",
"2 c #D94213",
"3 c #D94313",
"4 c #F0B245",
"5 c #F1B245",
"6 c #F0B345",
"7 c #F1B345",
/* pixels */
"                                ",
"                >>              ",
"               >>>              ",
"             55>>>              ",
"             55>>>55            ",
"          5  5>>>>55>           ",
"          55 5>>>555>>          ",
"          >> 5>>>55             ",
"          >>55>>>5              ",
"         >>>>>>>>>>>            ",
"         >>>>>>5>>>>            ",
"        o>>>>>55>>>>            ",
"        oo>>>>5>>>ooo           ",
"        ooooooooooooo           ",
"         ooooooooooo            ",
"            ;;;;;;;             ",
"            ;;;;;;;             ",
"             ;;;;;;;            ",
"            ;;;;;;;;            ",
"             ;;;;;;;            ",
"            ;;;;;;;;            ",
"            ;;;;;;;;            ",
"            ;;;;;;;;            ",
"            ;;;;;;;             ",
"            ;;;;;;;             ",
"            ;;;;;;;             ",
"            ;;;;;;;             ",
"            ;;;;;;;             ",
"             ;;;;;;             ",
"             ;;;;;;             ",
"             ;;;;;;             ",
"             ;;;;;;             "
};
