/* XPM */
static char *_ba4ebd730a544b5b4e277fe721fe6d2qdI5bhZwy9hLf7AW[] = {
/* columns rows colors chars-per-pixel */
"32 32 22 1 ",
"  c None",
". c #161616",
"X c #171616",
"o c #161716",
"O c #161617",
"+ c #3E1B0E",
"@ c #3F1B0E",
"# c #3E1A0F",
"$ c #3F1A0F",
"% c #3E1B0F",
"& c #3F1B0F",
"* c #D84212",
"= c #D94212",
"- c #D84312",
"; c #D94312",
": c #D94213",
"> c #D84313",
", c #F1B344",
"< c #F0B245",
"1 c #F1B245",
"2 c #F0B345",
"3 c #F1B345",
/* pixels */
"                                ",
"             ::                 ",
"           33:::  3             ",
"          :33::::333            ",
"         :::3:::3333::          ",
"          ::3333  3::3          ",
"           :::33  ::3:          ",
"          33:::  :::3           ",
"          33:::::::::           ",
"          :3:::33:::            ",
"         :::::33::::            ",
"        .:::::3:::::            ",
"        ..::::::::...           ",
"        .............           ",
"         ...........            ",
"            &&&&&&&             ",
"            &&&&&&&             ",
"             &&&&&&&            ",
"            &&&&&&&&            ",
"             &&&&&&&            ",
"            &&&&&&&&            ",
"            &&&&&&&&            ",
"            &&&&&&&&            ",
"            &&&&&&&             ",
"            &&&&&&&             ",
"            &&&&&&&             ",
"            &&&&&&&             ",
"            &&&&&&&             ",
"             &&&&&&             ",
"             &&&&&&             ",
"             &&&&&&             ",
"             &&&&&&             "
};
